<mxfile host="app.diagrams.net" modified="2024-02-20T01:38:49.493Z" agent="Mozilla/5.0 (Windows NT 10.0; Win64; x64) AppleWebKit/537.36 (KHTML, like Gecko) Chrome/121.0.0.0 Safari/537.36" etag="nam-IjsZtshRgfh_L3Vb" version="23.1.5" type="github">
  <diagram name="第 1 页" id="gGNzHbZxtVyuUFQX-Yiw">
    <mxGraphModel dx="1434" dy="749" grid="1" gridSize="10" guides="1" tooltips="1" connect="1" arrows="1" fold="1" page="1" pageScale="1" pageWidth="827" pageHeight="1169" math="0" shadow="0">
      <root>
        <mxCell id="0" />
        <mxCell id="1" parent="0" />
        <mxCell id="tY0vm_PG-ZFwHlgBGjM2-1" value="" style="shape=umlLifeline;perimeter=lifelinePerimeter;whiteSpace=wrap;html=1;container=1;dropTarget=0;collapsible=0;recursiveResize=0;outlineConnect=0;portConstraint=eastwest;newEdgeStyle={&quot;curved&quot;:0,&quot;rounded&quot;:0};participant=umlActor;" vertex="1" parent="1">
          <mxGeometry x="70" y="90" width="20" height="1040" as="geometry" />
        </mxCell>
        <mxCell id="tY0vm_PG-ZFwHlgBGjM2-2" value="" style="endArrow=none;dashed=1;html=1;rounded=0;" edge="1" parent="1">
          <mxGeometry width="50" height="50" relative="1" as="geometry">
            <mxPoint x="200" y="1169" as="sourcePoint" />
            <mxPoint x="200" y="120" as="targetPoint" />
          </mxGeometry>
        </mxCell>
        <mxCell id="tY0vm_PG-ZFwHlgBGjM2-3" value="" style="html=1;points=[[0,0,0,0,5],[0,1,0,0,-5],[1,0,0,0,5],[1,1,0,0,-5]];perimeter=orthogonalPerimeter;outlineConnect=0;targetShapes=umlLifeline;portConstraint=eastwest;newEdgeStyle={&quot;curved&quot;:0,&quot;rounded&quot;:0};" vertex="1" parent="1">
          <mxGeometry x="195" y="190" width="10" height="640" as="geometry" />
        </mxCell>
        <mxCell id="tY0vm_PG-ZFwHlgBGjM2-4" value="1、查询" style="html=1;verticalAlign=bottom;endArrow=block;curved=0;rounded=0;entryX=0;entryY=0;entryDx=0;entryDy=5;" edge="1" target="tY0vm_PG-ZFwHlgBGjM2-3" parent="1" source="tY0vm_PG-ZFwHlgBGjM2-1">
          <mxGeometry relative="1" as="geometry">
            <mxPoint x="170" y="195" as="sourcePoint" />
          </mxGeometry>
        </mxCell>
        <mxCell id="tY0vm_PG-ZFwHlgBGjM2-5" value="return" style="html=1;verticalAlign=bottom;endArrow=open;dashed=1;endSize=8;curved=0;rounded=0;exitX=0;exitY=1;exitDx=0;exitDy=-5;" edge="1" source="tY0vm_PG-ZFwHlgBGjM2-3" parent="1" target="tY0vm_PG-ZFwHlgBGjM2-1">
          <mxGeometry relative="1" as="geometry">
            <mxPoint x="170" y="265" as="targetPoint" />
          </mxGeometry>
        </mxCell>
        <mxCell id="tY0vm_PG-ZFwHlgBGjM2-10" value="" style="endArrow=none;dashed=1;html=1;rounded=0;" edge="1" parent="1">
          <mxGeometry width="50" height="50" relative="1" as="geometry">
            <mxPoint x="440" y="1169" as="sourcePoint" />
            <mxPoint x="440" y="120" as="targetPoint" />
          </mxGeometry>
        </mxCell>
        <mxCell id="tY0vm_PG-ZFwHlgBGjM2-16" value="" style="html=1;points=[[0,0,0,0,5],[0,1,0,0,-5],[1,0,0,0,5],[1,1,0,0,-5]];perimeter=orthogonalPerimeter;outlineConnect=0;targetShapes=umlLifeline;portConstraint=eastwest;newEdgeStyle={&quot;curved&quot;:0,&quot;rounded&quot;:0};" vertex="1" parent="1">
          <mxGeometry x="200" y="240" width="10" height="40" as="geometry" />
        </mxCell>
        <mxCell id="tY0vm_PG-ZFwHlgBGjM2-17" value="2、判断用户是否拥有主管角色&lt;br&gt;（是否存在生效任职中被配置了主管）" style="html=1;align=left;spacingLeft=2;endArrow=block;rounded=0;edgeStyle=orthogonalEdgeStyle;curved=0;rounded=0;" edge="1" target="tY0vm_PG-ZFwHlgBGjM2-16" parent="1">
          <mxGeometry relative="1" as="geometry">
            <mxPoint x="205" y="220" as="sourcePoint" />
            <Array as="points">
              <mxPoint x="235" y="250" />
            </Array>
          </mxGeometry>
        </mxCell>
        <mxCell id="tY0vm_PG-ZFwHlgBGjM2-18" value="return" style="html=1;verticalAlign=bottom;endArrow=open;dashed=1;endSize=8;curved=0;rounded=0;" edge="1" parent="1" target="tY0vm_PG-ZFwHlgBGjM2-1">
          <mxGeometry relative="1" as="geometry">
            <mxPoint x="200" y="260" as="sourcePoint" />
            <mxPoint x="120" y="260" as="targetPoint" />
          </mxGeometry>
        </mxCell>
        <mxCell id="tY0vm_PG-ZFwHlgBGjM2-19" value="" style="html=1;points=[[0,0,0,0,5],[0,1,0,0,-5],[1,0,0,0,5],[1,1,0,0,-5]];perimeter=orthogonalPerimeter;outlineConnect=0;targetShapes=umlLifeline;portConstraint=eastwest;newEdgeStyle={&quot;curved&quot;:0,&quot;rounded&quot;:0};" vertex="1" parent="1">
          <mxGeometry x="435" y="320" width="10" height="80" as="geometry" />
        </mxCell>
        <mxCell id="tY0vm_PG-ZFwHlgBGjM2-20" value="3、根据层级查询所有下级员工id" style="html=1;verticalAlign=bottom;endArrow=block;curved=0;rounded=0;entryX=0;entryY=0;entryDx=0;entryDy=5;" edge="1" target="tY0vm_PG-ZFwHlgBGjM2-19" parent="1" source="tY0vm_PG-ZFwHlgBGjM2-3">
          <mxGeometry relative="1" as="geometry">
            <mxPoint x="370" y="325" as="sourcePoint" />
          </mxGeometry>
        </mxCell>
        <mxCell id="tY0vm_PG-ZFwHlgBGjM2-21" value="return" style="html=1;verticalAlign=bottom;endArrow=open;dashed=1;endSize=8;curved=0;rounded=0;exitX=0;exitY=1;exitDx=0;exitDy=-5;" edge="1" source="tY0vm_PG-ZFwHlgBGjM2-19" parent="1" target="tY0vm_PG-ZFwHlgBGjM2-3">
          <mxGeometry relative="1" as="geometry">
            <mxPoint x="370" y="395" as="targetPoint" />
          </mxGeometry>
        </mxCell>
        <mxCell id="tY0vm_PG-ZFwHlgBGjM2-22" value="" style="html=1;points=[[0,0,0,0,5],[0,1,0,0,-5],[1,0,0,0,5],[1,1,0,0,-5]];perimeter=orthogonalPerimeter;outlineConnect=0;targetShapes=umlLifeline;portConstraint=eastwest;newEdgeStyle={&quot;curved&quot;:0,&quot;rounded&quot;:0};" vertex="1" parent="1">
          <mxGeometry x="435" y="450" width="10" height="80" as="geometry" />
        </mxCell>
        <mxCell id="tY0vm_PG-ZFwHlgBGjM2-23" value="4、构建查询条件（包括在职、员工id等条件）" style="html=1;verticalAlign=bottom;endArrow=block;curved=0;rounded=0;entryX=0;entryY=0;entryDx=0;entryDy=5;exitX=1.5;exitY=0.557;exitDx=0;exitDy=0;exitPerimeter=0;" edge="1" target="tY0vm_PG-ZFwHlgBGjM2-22" parent="1">
          <mxGeometry relative="1" as="geometry">
            <mxPoint x="210" y="455.21000000000004" as="sourcePoint" />
          </mxGeometry>
        </mxCell>
        <mxCell id="tY0vm_PG-ZFwHlgBGjM2-24" value="return" style="html=1;verticalAlign=bottom;endArrow=open;dashed=1;endSize=8;curved=0;rounded=0;exitX=0;exitY=1;exitDx=0;exitDy=-5;" edge="1" source="tY0vm_PG-ZFwHlgBGjM2-22" parent="1">
          <mxGeometry relative="1" as="geometry">
            <mxPoint x="205" y="525" as="targetPoint" />
          </mxGeometry>
        </mxCell>
        <mxCell id="tY0vm_PG-ZFwHlgBGjM2-25" value="" style="html=1;points=[[0,0,0,0,5],[0,1,0,0,-5],[1,0,0,0,5],[1,1,0,0,-5]];perimeter=orthogonalPerimeter;outlineConnect=0;targetShapes=umlLifeline;portConstraint=eastwest;newEdgeStyle={&quot;curved&quot;:0,&quot;rounded&quot;:0};" vertex="1" parent="1">
          <mxGeometry x="435" y="570" width="10" height="80" as="geometry" />
        </mxCell>
        <mxCell id="tY0vm_PG-ZFwHlgBGjM2-26" value="5、框架detail查询" style="html=1;verticalAlign=bottom;endArrow=block;curved=0;rounded=0;entryX=0;entryY=0;entryDx=0;entryDy=5;" edge="1" target="tY0vm_PG-ZFwHlgBGjM2-25" parent="1">
          <mxGeometry relative="1" as="geometry">
            <mxPoint x="205" y="575" as="sourcePoint" />
          </mxGeometry>
        </mxCell>
        <mxCell id="tY0vm_PG-ZFwHlgBGjM2-27" value="return" style="html=1;verticalAlign=bottom;endArrow=open;dashed=1;endSize=8;curved=0;rounded=0;exitX=0;exitY=1;exitDx=0;exitDy=-5;" edge="1" source="tY0vm_PG-ZFwHlgBGjM2-25" parent="1">
          <mxGeometry relative="1" as="geometry">
            <mxPoint x="205" y="645" as="targetPoint" />
          </mxGeometry>
        </mxCell>
        <mxCell id="tY0vm_PG-ZFwHlgBGjM2-28" value="" style="html=1;points=[[0,0,0,0,5],[0,1,0,0,-5],[1,0,0,0,5],[1,1,0,0,-5]];perimeter=orthogonalPerimeter;outlineConnect=0;targetShapes=umlLifeline;portConstraint=eastwest;newEdgeStyle={&quot;curved&quot;:0,&quot;rounded&quot;:0};" vertex="1" parent="1">
          <mxGeometry x="435" y="700" width="10" height="80" as="geometry" />
        </mxCell>
        <mxCell id="tY0vm_PG-ZFwHlgBGjM2-29" value="6、根据查询到的员工数据构建树结构" style="html=1;verticalAlign=bottom;endArrow=block;curved=0;rounded=0;entryX=0;entryY=0;entryDx=0;entryDy=5;" edge="1" target="tY0vm_PG-ZFwHlgBGjM2-28" parent="1" source="tY0vm_PG-ZFwHlgBGjM2-3">
          <mxGeometry relative="1" as="geometry">
            <mxPoint x="365" y="705" as="sourcePoint" />
          </mxGeometry>
        </mxCell>
        <mxCell id="tY0vm_PG-ZFwHlgBGjM2-30" value="return" style="html=1;verticalAlign=bottom;endArrow=open;dashed=1;endSize=8;curved=0;rounded=0;exitX=0;exitY=1;exitDx=0;exitDy=-5;" edge="1" source="tY0vm_PG-ZFwHlgBGjM2-28" parent="1" target="tY0vm_PG-ZFwHlgBGjM2-3">
          <mxGeometry relative="1" as="geometry">
            <mxPoint x="365" y="775" as="targetPoint" />
          </mxGeometry>
        </mxCell>
      </root>
    </mxGraphModel>
  </diagram>
</mxfile>
